<svg xmlns="http://www.w3.org/2000/svg" viewBox="0 0 520 340"><defs><linearGradient id="c" x2=".2" y2="1"><stop stop-color="#f7f3e7"/><stop offset="1" stop-color="#b6b09b"/></linearGradient><linearGradient id="s" x2="1" y2="1"><stop stop-color="#414b38"/><stop offset="1" stop-color="#1b231a"/></linearGradient><filter id="b"><feGaussianBlur stdDeviation="9"/></filter></defs><ellipse cx="274" cy="289" rx="144" ry="16" fill="#5b5544" opacity=".17" filter="url(#b)"/><g transform="translate(42 1) rotate(-8 240 160)"><path d="m161 80 43-24 171 21-22 162-42 18Z" fill="#a29b86"/><path d="m111 79 174 10q17 1 18 18l-4 126q-1 14-16 14l-162-10q-17-1-17-17l-5-123q-1-18 12-18Z" fill="url(#c)" stroke="#b5ae9c"/><path d="m118 96 160 10 3 111-161-9Z" fill="#8d8a76"/><path d="m127 104 144 10 1 94-145-8Z" fill="url(#s)"/><path d="m131 106 136 10" stroke="#fff" opacity=".22"/><g fill="#9fc580" font-family="monospace" font-size="10"><text x="143" y="137">PERU ONLINE</text><text x="143" y="158">Conectando...</text><text x="143" y="180">1997_</text></g><circle cx="280" cy="231" r="3" fill="#80a84e"/><path d="m179 242-2 25 72 4-9-26" fill="#aba58f"/><path d="m163 265 93 6 17 13-122-6Z" fill="url(#c)" stroke="#aea794"/><path d="m119 278 176 12 36 24-212-15-33-15Z" fill="url(#c)" stroke="#ada58f"/><g stroke="#a49d89" stroke-width="2"><path d="m124 285 164 12m-155-8 169 12m-151-16-5 9m26-7-5 9m26-7-5 9m26-7-5 9m26-7-5 9m26-7-5 9m26-7-5 9"/></g><path d="M337 270c-12-17-7-43 14-46s23-18 24-34" fill="none" stroke="#827a64" stroke-width="2"/><ellipse cx="342" cy="281" rx="13" ry="21" fill="url(#c)" transform="rotate(-25 342 281)"/><path d="m335 263 8 13" stroke="#99917c"/></g></svg>
